<?xml version="1.0" encoding="UTF-8"?>
<svg xmlns="http://www.w3.org/2000/svg" viewBox="0 0 1000 353.2">
  <defs>
    <style>
      .cls-1 {
        fill: #c79d3f;
      }

      .cls-2 {
        fill: #1e4c32;
      }

      .cls-3 {
        fill: #fff;
      }

      .cls-4 {
        fill: #c79e3f;
      }
    </style>
  </defs>
  <g id="tag">
    <g>
      <circle class="cls-3" cx="346.57" cy="24.94" r="10.57"/>
      <g>
        <path class="cls-1" d="M16.26,245.44l15.05,10.26,53.38,35.85-38.65-139.05L3.66,214.17c-3.06,4.45-4.41,9.56-3.25,14.86.91,4.06,3.19,7.59,6.61,9.97l9.24,6.44Z"/>
        <path class="cls-4" d="M322.94,7.93c-5.86-.67-11.86-.31-17.66.95-8.02,1.74-15.52,5.06-22.34,9.63-4.71,3.44-9.03,7.12-12.82,11.6l6.48,4.33c3.94-4.62,8.29-8.41,13.41-11.44,7.74-4.71,16.49-7.43,25.53-7.74,2.5-.09,4.97.07,7.4.45v-7.78Z"/>
        <path class="cls-2" d="M266.8,217.96l27.86-40.7c3.46-5.06,4.82-10.93,4.78-16.98l-.37-54.3c-10.36.67-20.46-.64-29.74-5.24-2.4,3.12-5.32,5.6-8.68,7.33-10.99,5.67-24.4,1.93-30.66-8.72-1.85-3.15-3.02-6.5-3.29-10.18-.91-12.38,7.84-23.66,20.08-25.47,6.89-1.02,13.82,1.02,19.13,5.53,3.04,2.59,5.07,5.84,6.65,9.51,8.4,4.29,17.08,6.57,26.62,5.78l-.1-16.72c-.03-4.17-1.03-8.04-2.86-11.74-2.37-4.56-5.85-8.16-10.1-11.05l-22.12-15.06c-6.95-4.74-15.67-7.21-24.08-5.66l-47.97,8.83-60.52,11.24c-6.39,1.19-11.78,5.17-15.42,10.51l-19.34,28.35-37.32,54.43s50.03,171.47,50.62,171.87l38.43,26.73,8.37,5.75c4.34,2.98,9.49,4.2,14.73,3.38s10.34-3.29,13.42-7.78l64.64-94.43,17.24-25.18Z"/>
        <g>
          <path class="cls-4" d="M356.03,30.44c-2.16-4.59-5.27-8.66-8.97-12.01-1.47.41-4.79,1.68-6.61,5.06,2.88,2.28,5.56,5.69,7.03,8.19,4.07,6.94,5.29,14.76,3.78,22.71-1.36,7.11-4.56,13.54-9.15,19.13-4.19,5.11-9.03,9.27-14.7,12.67-11.03,6.62-23.87,9.79-36.67,8.97-11.19-.72-23.37-5.71-28.41-16.17-1.56-3.08-2.36-6.38-2.24-9.88-2.53-1.4-5.24-2.17-8.14-2.41-.18,5.59.88,10.86,3.13,15.79,2.42,5.12,6.06,9.26,10.73,12.43,9.38,6.39,20.85,8.57,32.15,7.89,11.7-.7,23.09-4.2,33.25-10.16,7.79-4.57,14.51-10.64,19.74-18.02,9.23-13.03,11.96-29.64,5.1-44.21Z"/>
          <path class="cls-4" d="M339.79,20.53s0,0,0-.01c0,0,0,0,0,.01Z"/>
        </g>
      </g>
    </g>
  </g>
  <g id="es">
    <g>
      <path class="cls-2" d="M517.72,73.48h-113v65.37h107.43v65.88h-107.43v75h113v65.88h-191.04V7.6h191.04v65.88Z"/>
      <path class="cls-2" d="M711.8,90.2c-25.34-22.8-47.13-24.32-56.76-24.32-10.64,0-23.82,1.52-32.94,11.66-5.07,5.07-8.61,12.67-8.61,21.28,0,8.11,2.53,14.19,7.6,18.75,8.11,7.6,19.76,10.64,42.57,19.26l25.34,9.63c14.7,5.57,32.94,13.17,46.11,25.84,19.76,18.75,24.83,43.07,24.83,62.84,0,34.97-12.16,65.37-29.9,83.61-29.9,31.42-73.48,34.46-95.77,34.46-24.32,0-45.61-3.55-66.89-14.19-17.23-8.62-36.99-24.32-49.66-36.99l40.54-55.74c8.61,8.61,22.3,20.27,31.42,25.84,13.18,8.11,26.86,12.16,42.57,12.16,10.13,0,24.32-2.03,35.47-11.66,6.59-5.57,12.16-14.69,12.16-27.36,0-11.15-4.56-18.24-11.65-24.32-9.12-7.6-29.9-15.2-39.53-18.75l-27.87-9.63c-15.71-5.57-33.95-12.67-47.13-26.86-17.74-18.75-20.27-42.57-20.27-58.78,0-29.9,9.12-55.23,29.39-76.01,23.82-24.32,52.19-30.91,83.61-30.91,23.31,0,60.81,4.05,100.34,33.44l-34.96,56.76Z"/>
    </g>
  </g>
  <g id="b">
    <path class="cls-1" d="M855.58,7.6c18.75,0,55.24,0,82.6,21.28,19.76,15.2,31.42,41.55,31.42,69.93,0,43.58-28.88,61.32-38.01,66.38,22.3,3.55,35.47,13.18,44.09,21.28,20.27,19.26,24.32,45.61,24.32,63.34,0,19.76-5.57,47.63-28.88,68.41-25.34,22.3-56.25,27.36-85.64,27.36h-113.51V7.6h83.61ZM837.84,147.97h18.75c10.13,0,51.18-1.01,51.18-44.09,0-30.91-23.82-42.57-50.67-42.57h-19.26v86.65ZM837.84,291.89h28.38c12.16,0,30.4-.51,45.1-9.12,16.22-9.63,20.78-25.84,20.78-39.02,0-10.64-3.55-28.88-24.83-38.51-14.19-6.59-30.91-6.59-45.1-6.59h-24.32v93.24Z"/>
  </g>
</svg>